<?xml version="1.0" standalone="no"?>
<!DOCTYPE svg PUBLIC "-//W3C//DTD SVG 20010904//EN"
 "http://www.w3.org/TR/2001/REC-SVG-20010904/DTD/svg10.dtd">
<svg version="1.0" xmlns="http://www.w3.org/2000/svg"
 width="180.000000pt" height="180.000000pt" viewBox="0 0 180.000000 180.000000"
 preserveAspectRatio="xMidYMid meet">
<metadata>
Created by potrace 1.14, written by Peter Selinger 2001-2017
</metadata>
<g transform="translate(0.000000,180.000000) scale(0.100000,-0.100000)"
fill="#000000" stroke="none">
<path d="M534 1678 c-11 -13 -31 -39 -43 -59 l-24 -35 -84 34 c-82 33 -123 35
-123 8 0 -7 23 -48 50 -90 l51 -76 -56 -67 c-31 -37 -54 -74 -53 -83 3 -12 22
-16 95 -18 l92 -3 43 -54 c45 -58 72 -75 92 -56 6 7 20 40 32 73 l20 62 82 22
c44 12 86 25 92 29 24 15 5 34 -88 88 l-98 56 -17 80 c-10 43 -24 87 -30 96
-11 15 -14 14 -33 -7z"/>
<path d="M881 1378 c-30 -51 -83 -139 -118 -195 -35 -57 -63 -107 -63 -113 0
-16 -11 -13 -96 26 -115 52 -126 56 -270 113 -73 28 -139 51 -148 51 -18 0
-35 -29 -28 -50 8 -25 263 -533 278 -555 8 -11 14 -27 14 -35 0 -14 -55 -163
-80 -215 -20 -41 -70 -208 -70 -231 0 -30 30 -32 68 -6 15 10 104 52 197 92
94 40 196 86 228 102 37 18 63 26 70 20 7 -5 45 -35 85 -67 119 -95 236 -175
255 -175 31 0 37 45 37 265 0 204 1 215 20 225 11 6 106 44 211 85 106 41 196
78 201 83 17 17 -4 40 -65 68 -34 16 -143 68 -242 117 l-180 87 -46 103 c-25
56 -65 138 -89 182 -81 150 -94 152 -169 23z"/>
</g>
</svg>
